<svg id="instagram" xmlns="http://www.w3.org/2000/svg" width="23.195" height="23.195" viewBox="0 0 23.195 23.195">
  <path id="Path_9" data-name="Path 9" d="M211.44,209.22a2.22,2.22,0,1,1-2.22-2.22A2.22,2.22,0,0,1,211.44,209.22Zm0,0" transform="translate(-197.622 -197.622)" fill="#fff"/>
  <path id="Path_10" data-name="Path 10" d="M146.135,137.02a2.205,2.205,0,0,0-1.264-1.264,3.685,3.685,0,0,0-1.236-.229c-.7-.032-.913-.039-2.691-.039s-1.989.007-2.691.039a3.687,3.687,0,0,0-1.236.229,2.206,2.206,0,0,0-1.264,1.264,3.686,3.686,0,0,0-.229,1.237c-.032.7-.039.913-.039,2.691s.007,1.989.039,2.691a3.685,3.685,0,0,0,.229,1.236,2.205,2.205,0,0,0,1.264,1.264,3.68,3.68,0,0,0,1.237.229c.7.032.913.039,2.691.039s1.989-.007,2.691-.039a3.68,3.68,0,0,0,1.237-.229,2.205,2.205,0,0,0,1.264-1.264,3.688,3.688,0,0,0,.229-1.236c.032-.7.039-.913.039-2.691s-.007-1.989-.039-2.691A3.68,3.68,0,0,0,146.135,137.02Zm-5.191,7.347a3.42,3.42,0,1,1,3.42-3.42A3.42,3.42,0,0,1,140.944,144.367Zm3.555-6.175a.8.8,0,1,1,.8-.8A.8.8,0,0,1,144.5,138.192Zm0,0" transform="translate(-129.347 -129.35)" fill="#fff"/>
  <path id="Path_11" data-name="Path 11" d="M11.6,0a11.6,11.6,0,1,0,11.6,11.6A11.6,11.6,0,0,0,11.6,0Zm6.619,14.343a4.886,4.886,0,0,1-.31,1.617,3.405,3.405,0,0,1-1.948,1.948,4.889,4.889,0,0,1-1.616.31c-.71.032-.937.04-2.746.04s-2.035-.008-2.746-.04a4.889,4.889,0,0,1-1.616-.31A3.405,3.405,0,0,1,5.288,15.96a4.885,4.885,0,0,1-.31-1.616c-.033-.71-.04-.937-.04-2.746s.008-2.035.04-2.746a4.886,4.886,0,0,1,.309-1.617A3.407,3.407,0,0,1,7.235,5.288a4.89,4.89,0,0,1,1.617-.31c.71-.032.937-.04,2.746-.04s2.035.008,2.746.04a4.891,4.891,0,0,1,1.617.309,3.406,3.406,0,0,1,1.948,1.948,4.885,4.885,0,0,1,.31,1.617c.032.71.04.937.04,2.746S18.249,13.633,18.217,14.343Zm0,0" fill="#fff"/>
</svg>
