<svg id="kids" xmlns="http://www.w3.org/2000/svg" width="72.692" height="74.429" viewBox="0 0 72.692 74.429">
  <g id="Group_16" data-name="Group 16" transform="translate(35.931 22.109)">
    <g id="Group_15" data-name="Group 15">
      <path id="Path_18" data-name="Path 18" d="M289.341,154.986a2.13,2.13,0,0,0-3.01-.112l-4.308,4a1.914,1.914,0,0,0-2.1-.069l.085-.2a.628.628,0,0,0-1.084-.619,5.3,5.3,0,1,0-10.533,0,.628.628,0,0,0-1.084.619l.085.2a1.834,1.834,0,0,0-1.9-.036,6.214,6.214,0,0,0-1.707,1.247l-7.327-4.867A2.13,2.13,0,0,0,254.1,158.7c11.165,7.417,14.343,9.531,14.449,9.592,0,0-.8,4.98-3.344,18.469a1.186,1.186,0,0,0,1.162,1.41h1.055l-2.588,13.192a2.556,2.556,0,1,0,5.016.984l2.781-14.176h2.555l2.1,14.061a2.553,2.553,0,0,0,4.3,1.459,2.352,2.352,0,1,0,.535-3.677l-1.766-11.843h.591a1.184,1.184,0,0,0,1.162-1.41c-2.016-10.371-3.408-18.986-3.408-18.986l5.423-5.036a6.145,6.145,0,0,1,.663.174.332.332,0,0,0,.4-.46c-.081-.166-.163-.323-.245-.475L289.23,158A2.13,2.13,0,0,0,289.341,154.986Zm-13.18,9.332h-5.9l-2.815-1.87a1.815,1.815,0,0,0,1-1.164l.092.215a.629.629,0,0,0,1.158-.493l-.078-.184a5.3,5.3,0,0,0,8.079,0l-.078.184a.629.629,0,0,0,1.158.493l.092-.215a1.857,1.857,0,0,0,.154.378Z" transform="translate(-253.15 -152.091)" fill="#697D96"/>
    </g>
  </g>
  <g id="Group_18" data-name="Group 18" transform="translate(11.595 20.852)">
    <g id="Group_17" data-name="Group 17">
      <circle id="Ellipse_4" data-name="Ellipse 4" cx="5.313" cy="5.313" r="5.313" fill="#697D96"/>
    </g>
  </g>
  <g id="Group_20" data-name="Group 20" transform="translate(0 17.396)">
    <g id="Group_19" data-name="Group 19">
      <path id="Path_19" data-name="Path 19" d="M40.172,123.1a2.148,2.148,0,1,0-3.447-2.563l-11.09,14.911H19.9L9.781,123.126a2.148,2.148,0,1,0-3.318,2.727l10.709,13.033v14.26L11.03,173.375a2.577,2.577,0,0,0,4.932,1.5l5.721-18.846h2l1.858,18.357a2.577,2.577,0,0,0,5.128-.519c-2.237-22.108-2.082-20.627-2.118-20.819V138.73Z" transform="translate(-5.974 -119.669)" fill="#697D96"/>
    </g>
  </g>
  <g id="Group_22" data-name="Group 22" transform="translate(37.339 14.056)">
    <g id="Group_21" data-name="Group 21">
      <ellipse id="Ellipse_5" data-name="Ellipse 5" cx="2.352" cy="2.352" rx="2.352" ry="2.352" fill="#697D96"/>
    </g>
  </g>
  <g id="Group_24" data-name="Group 24" transform="translate(29.345 69.726)">
    <g id="Group_23" data-name="Group 23">
      <ellipse id="Ellipse_6" data-name="Ellipse 6" cx="2.352" cy="2.352" rx="2.352" ry="2.352" fill="#697D96"/>
    </g>
  </g>
  <g id="Group_26" data-name="Group 26" transform="translate(39.572 69.726)">
    <g id="Group_25" data-name="Group 25">
      <ellipse id="Ellipse_7" data-name="Ellipse 7" cx="2.352" cy="2.352" rx="2.352" ry="2.352" fill="#697D96"/>
    </g>
  </g>
  <g id="Group_28" data-name="Group 28" transform="translate(49.547 8.712)">
    <g id="Group_27" data-name="Group 27" transform="translate(0)">
      <ellipse id="Ellipse_8" data-name="Ellipse 8" cx="2.352" cy="2.352" rx="2.352" ry="2.352" fill="#697D96"/>
    </g>
  </g>
  <g id="Group_30" data-name="Group 30" transform="translate(26.992 4.008)">
    <g id="Group_29" data-name="Group 29">
      <ellipse id="Ellipse_9" data-name="Ellipse 9" cx="2.352" cy="2.352" rx="2.352" ry="2.352" fill="#697D96"/>
    </g>
  </g>
  <g id="Group_32" data-name="Group 32" transform="translate(17.69 11.064)">
    <g id="Group_31" data-name="Group 31">
      <ellipse id="Ellipse_10" data-name="Ellipse 10" cx="2.352" cy="2.352" rx="2.352" ry="2.352" fill="#697D96"/>
    </g>
  </g>
  <g id="Group_34" data-name="Group 34" transform="translate(3.153 8.712)">
    <g id="Group_33" data-name="Group 33">
      <ellipse id="Ellipse_11" data-name="Ellipse 11" cx="2.352" cy="2.352" rx="2.352" ry="2.352" fill="#697D96"/>
    </g>
  </g>
  <g id="Group_36" data-name="Group 36" transform="translate(10.635 1.657)">
    <g id="Group_35" data-name="Group 35" transform="translate(0)">
      <ellipse id="Ellipse_12" data-name="Ellipse 12" cx="2.352" cy="2.352" rx="2.352" ry="2.352" fill="#697D96"/>
    </g>
  </g>
  <g id="Group_38" data-name="Group 38" transform="translate(59.388 1.657)">
    <g id="Group_37" data-name="Group 37" transform="translate(0)">
      <ellipse id="Ellipse_13" data-name="Ellipse 13" cx="2.352" cy="2.352" rx="2.352" ry="2.352" fill="#697D96"/>
    </g>
  </g>
  <g id="Group_40" data-name="Group 40" transform="translate(64.912 15.766)">
    <g id="Group_39" data-name="Group 39">
      <ellipse id="Ellipse_14" data-name="Ellipse 14" cx="2.352" cy="2.352" rx="2.352" ry="2.352" fill="#697D96"/>
    </g>
  </g>
  <g id="Group_42" data-name="Group 42" transform="translate(39.689 0)">
    <g id="Group_41" data-name="Group 41" transform="translate(0 0)">
      <ellipse id="Ellipse_15" data-name="Ellipse 15" cx="2.352" cy="2.352" rx="2.352" ry="2.352" fill="#697D96"/>
    </g>
  </g>
</svg>
