<svg xmlns="http://www.w3.org/2000/svg" width="74.429" height="74.429" viewBox="0 0 74.429 74.429">
  <g id="sea" transform="translate(0)">
    <path id="Path_20" data-name="Path 20" d="M74.415,36.215A1.035,1.035,0,0,0,74.4,35.8a36.907,36.907,0,0,0-5.827-18.648,1.092,1.092,0,0,0-.407-.622A37.6,37.6,0,0,0,63.529,10.9Q62.3,9.674,60.985,8.58a1.089,1.089,0,0,0-.376-.31A37.214,37.214,0,0,0,.029,35.8,1.1,1.1,0,0,0,0,36.049a1.109,1.109,0,0,0,.014.166q-.013.5-.014,1,0,1,.054,1.994A1.084,1.084,0,0,0,.1,40,37.216,37.216,0,0,0,63.529,63.529,36.938,36.938,0,0,0,74.326,40a1.084,1.084,0,0,0,.049-.8q.052-.992.054-1.994Q74.429,36.713,74.415,36.215ZM72.17,34.957h-23.3a1.238,1.238,0,0,1,0-2.476,1.092,1.092,0,0,0,1.092-1.092,3.572,3.572,0,0,1,3.566-3.569c.016,0,.064.007.1.012.067.009.135.018.2.024a1.092,1.092,0,0,0,1.124-.73,5.9,5.9,0,0,1,5.568-3.966c.071,0,.141.006.21.01l.127.008a1.093,1.093,0,0,0,1.093-.729,5.907,5.907,0,0,1,4.913-3.914A34.712,34.712,0,0,1,72.17,34.957ZM32.261,2.913a1.088,1.088,0,0,0,.19-.407,35.575,35.575,0,0,1,4.763-.322A34.763,34.763,0,0,1,59.194,9.936,5.893,5.893,0,0,1,50.1,16.373a1.092,1.092,0,0,0-1.6.372,3.554,3.554,0,0,1-6.7-1.67,1.092,1.092,0,0,0-1.092-1.092,3.558,3.558,0,0,1-3.443-2.689,1.092,1.092,0,0,0-1.088-.822,1.617,1.617,0,0,0-.178.015,4.734,4.734,0,0,1-3.74-7.574ZM12.445,12.445q.986-.986,2.036-1.882a1.092,1.092,0,0,0,.229.113A5.84,5.84,0,0,1,18.588,17a1.092,1.092,0,0,0,.546,1.091,5.915,5.915,0,0,1,2.992,4.748,6.922,6.922,0,0,0-4.391-1.861A8.077,8.077,0,0,0,9,16.437,35.509,35.509,0,0,1,12.445,12.445ZM6.924,19.6a1.088,1.088,0,0,0,.229-.115,5.895,5.895,0,0,1,8.828,2.984,1.093,1.093,0,0,0,1.106.732c.08-.006.159-.015.238-.026.029,0,.057-.009.08-.011a4.743,4.743,0,0,1,4.639,3.8,1.093,1.093,0,0,0,1.1.877c.056,0,.1-.006.142-.011a3.568,3.568,0,0,1-.054,7.137H2.259A34.725,34.725,0,0,1,6.924,19.6Zm55.06,42.389a35.365,35.365,0,0,1-5.607,4.565,1.088,1.088,0,0,0-.519-.131H50.032a1.092,1.092,0,1,0,0,2.185H52.8a35.186,35.186,0,0,1-31.176,0H40.71a1.092,1.092,0,1,0,0-2.185H18.571a1.088,1.088,0,0,0-.519.131,35.357,35.357,0,0,1-5.607-4.565,34.765,34.765,0,0,1-10.1-21.347h69.73A34.765,34.765,0,0,1,61.984,61.984ZM31.419,38.452a5.9,5.9,0,0,1,11.592,0Zm40.8,0h-27a8.082,8.082,0,0,0-16.016,0h-27c-.014-.412-.024-.824-.024-1.238,0-.024,0-.049,0-.073H24.4a1.089,1.089,0,0,0,.794-.344,5.754,5.754,0,0,0-1.231-11.117l-.008-.023a8.081,8.081,0,0,0-3.132-9.083c.006-.114.008-.225.008-.335A8.1,8.1,0,0,0,16.4,9.03,34.636,34.636,0,0,1,29.7,2.989a6.924,6.924,0,0,0,5.717,9.655,5.743,5.743,0,0,0,4.284,3.435,5.735,5.735,0,0,0,10.077,2.66,8.007,8.007,0,0,0,3.745.924,8.093,8.093,0,0,0,8.068-7.6c.13.126.26.251.389.379a35.5,35.5,0,0,1,3.533,4.119,8.1,8.1,0,0,0-5.327,4.417A8.088,8.088,0,0,0,53.2,25.644a5.764,5.764,0,0,0-5.346,4.805,3.423,3.423,0,0,0,1.016,6.692H72.243c0,.024,0,.049,0,.073C72.244,37.628,72.234,38.041,72.22,38.452Z" transform="translate(0)" fill="#697D96"/>
    <path id="Path_21" data-name="Path 21" d="M241.092,290.185h2.33a1.092,1.092,0,1,0,0-2.185h-2.33a1.092,1.092,0,0,0,0,2.185Z" transform="translate(-205.043 -246.052)" fill="#697D96"/>
    <path id="Path_22" data-name="Path 22" d="M201.092,338.185h13.983a1.092,1.092,0,1,0,0-2.185H201.092a1.092,1.092,0,1,0,0,2.185Z" transform="translate(-170.869 -287.06)" fill="#697D96"/>
    <path id="Path_23" data-name="Path 23" d="M169.092,386.185h23.3a1.092,1.092,0,1,0,0-2.185h-23.3a1.092,1.092,0,1,0,0,2.185Z" transform="translate(-143.53 -328.069)" fill="#697D96"/>
    <path id="Path_24" data-name="Path 24" d="M137.092,434.185h32.626a1.092,1.092,0,1,0,0-2.185H137.092a1.092,1.092,0,1,0,0,2.185Z" transform="translate(-116.191 -369.078)" fill="#697D96"/>
    <path id="Path_25" data-name="Path 25" d="M299.424,456h-2.33a1.092,1.092,0,0,0,0,2.185h2.33a1.092,1.092,0,0,0,0-2.185Z" transform="translate(-252.888 -389.582)" fill="#697D96"/>
    <path id="Path_26" data-name="Path 26" d="M200,409.092a1.092,1.092,0,0,0,1.092,1.092h20.974a1.092,1.092,0,0,0,0-2.185H201.091A1.092,1.092,0,0,0,200,409.092Z" transform="translate(-170.869 -348.573)" fill="#697D96"/>
    <path id="Path_27" data-name="Path 27" d="M153.092,410.185h3.5a1.092,1.092,0,0,0,0-2.185h-3.5a1.092,1.092,0,0,0,0,2.185Z" transform="translate(-129.861 -348.573)" fill="#697D96"/>
    <path id="Path_28" data-name="Path 28" d="M288,361.092a1.092,1.092,0,0,0,1.092,1.092h4.661a1.092,1.092,0,1,0,0-2.185h-4.661A1.092,1.092,0,0,0,288,361.092Z" transform="translate(-246.052 -307.565)" fill="#697D96"/>
    <path id="Path_29" data-name="Path 29" d="M185.092,362.185h11.652a1.092,1.092,0,0,0,0-2.185H185.092a1.092,1.092,0,0,0,0,2.185Z" transform="translate(-157.2 -307.565)" fill="#697D96"/>
    <path id="Path_30" data-name="Path 30" d="M248,313.092a1.092,1.092,0,0,0,1.092,1.092h4.661a1.092,1.092,0,0,0,0-2.185h-4.661A1.092,1.092,0,0,0,248,313.092Z" transform="translate(-211.878 -266.556)" fill="#697D96"/>
    <path id="Path_31" data-name="Path 31" d="M217.092,314.185h1.165a1.092,1.092,0,0,0,0-2.185h-1.165a1.092,1.092,0,0,0,0,2.185Z" transform="translate(-184.539 -266.556)" fill="#697D96"/>
  </g>
</svg>
