<svg id="securty" xmlns="http://www.w3.org/2000/svg" width="62.54" height="74.429" viewBox="0 0 62.54 74.429">
  <path id="Path_47" data-name="Path 47" d="M79.572,19.164c-.038-2.009-.075-3.908-.075-5.744a2.605,2.605,0,0,0-2.605-2.605c-11.142,0-19.624-3.2-26.7-10.077a2.6,2.6,0,0,0-3.632,0c-7.07,6.875-15.552,10.077-26.692,10.077a2.605,2.605,0,0,0-2.605,2.605c0,1.837-.036,3.736-.075,5.746-.357,18.7-.846,44.312,30.335,55.12a2.6,2.6,0,0,0,1.706,0C80.417,63.477,79.929,37.865,79.572,19.164Zm-31.191,49.9c-26.742-9.715-26.338-31-25.979-49.794.022-1.128.042-2.222.057-3.294,10.435-.44,18.779-3.6,25.922-9.825,7.144,6.223,15.489,9.385,25.925,9.825.015,1.072.035,2.164.057,3.292C74.721,38.063,75.125,59.344,48.381,69.059Z" transform="translate(-17.112 0)" fill="#38b3d0"/>
  <path id="Path_48" data-name="Path 48" d="M90.9,79.649,78.322,92.222l-5.366-5.366a2.605,2.605,0,0,0-3.684,3.684l7.208,7.208a2.606,2.606,0,0,0,3.684,0L94.58,83.333A2.605,2.605,0,1,0,90.9,79.649Z" transform="translate(-50.656 -51.484)" fill="#38b3d0"/>
</svg>
