<svg xmlns="http://www.w3.org/2000/svg" width="91.425" height="80.724" viewBox="0 0 91.425 80.724">
  <g id="winter" transform="translate(0)">
    <path id="Path_41" data-name="Path 41" d="M90.582,123a104.545,104.545,0,0,0-18.221-2.405V108.832l5.745-4.862a1.079,1.079,0,1,0-1.394-1.647l-4.352,3.682v-4.23l3.983-3.236,3.333.813a1.079,1.079,0,1,0,.512-2.1l-1.743-.425,1.058-.86A1.079,1.079,0,0,0,78.143,94.3l-5.783,4.7V97.28L75.2,91.736a1.079,1.079,0,0,0-1.92-.985l-2.275,4.436-2.15-2.219,1.283-2.806a1.079,1.079,0,1,0-1.962-.9l-.932,2.04-2.5-2.577a1.079,1.079,0,1,0-1.55,1.5l7,7.228v3.549l-4.642-3.439A1.079,1.079,0,0,0,64.276,99.3l5.927,4.39v16.83q-.915-.021-1.831-.026a70.628,70.628,0,0,0-20.811-8.218v-3.663l2.083-1.12a1.079,1.079,0,0,0-1.022-1.9l-1.061.571v-1.835l2.037-1.1a.981.981,0,1,0-.929-1.727l-1.108.6v-1.008l1.842-1.67a.981.981,0,0,0-1.318-1.453l-1.2,1.092L45.9,97.083a.981.981,0,1,0-1.756.874l1.46,2.932v.865l-1.455-.871a.981.981,0,1,0-1.007,1.683L45.6,104.04v.638l-1.706-.455a.981.981,0,0,0-.506,1.9l2.211.59v5.165a70.434,70.434,0,0,0-8.818-1.118v-6.4l2.211-.59a.981.981,0,1,0-.506-1.9l-1.706.455v-.9l2.1-1.2a.981.981,0,0,0-.974-1.7l-1.128.645v-.5L38.9,96.2a.981.981,0,1,0-1.49-1.276l-1.638,1.913-2-2.141a.981.981,0,0,0-1.433,1.339l2.485,2.66v1.9l-1.108-.6a.981.981,0,1,0-.929,1.727l2.037,1.1v7.845a71.361,71.361,0,0,0-21.306,2.5l-.038-.415,6.66-5.019,3.8,1.038a1.079,1.079,0,1,0,.568-2.082l-3.487-.951.162-4.046a1.079,1.079,0,1,0-2.156-.086l-.176,4.393-5.605,4.224-.646-7.124,5.25-4.345a1.079,1.079,0,1,0-1.376-1.662l-.8.665-.792-3.412a1.079,1.079,0,0,0-2.1.488l1.036,4.462-2.007,1.661L9.094,95.837a1.079,1.079,0,0,0-1.905,1.013l3.193,6.011L10.151,107l-3.6-2.3-.888-4.263a1.079,1.079,0,1,0-2.112.44l.693,3.328-1.928-.113a1.079,1.079,0,0,0-.127,2.154l3.054.18,4.766,3.042-.1,1.877-5.089-.922-3.154-2.04a1.079,1.079,0,0,0-1.172,1.811l2.036,1.317-1.116.837a1.079,1.079,0,1,0,1.294,1.726l1.977-1.483,5.1.925-.044.785a70.479,70.479,0,0,0-7.888,3.177,1.079,1.079,0,1,0,.926,1.949,68.244,68.244,0,0,1,6.833-2.8L8.5,136.643q-3.18.325-6.354.848a1.079,1.079,0,1,0,.351,2.129,102.253,102.253,0,0,1,75.341,17.318,1.079,1.079,0,0,0,1.241-1.765A104.617,104.617,0,0,0,15.6,136.165l-1.4-15.457,5.631-3.014a1.079,1.079,0,1,0-1.018-1.9l-4.825,2.582-.275-3.034a69.177,69.177,0,0,1,21.5-2.508A68.261,68.261,0,0,1,45.6,114.069v1.824a8.492,8.492,0,0,0-5.231,2.457,1.079,1.079,0,1,0,1.526,1.526,6.382,6.382,0,0,1,9.015,0,1.079,1.079,0,0,0,1.525-1.526,8.487,8.487,0,0,0-4.874-2.415v-1.448a68.587,68.587,0,0,1,16.5,6.074q-2.691.1-5.382.327a104.1,104.1,0,0,0-31.2,7.684,1.079,1.079,0,1,0,.833,1.99,102.486,102.486,0,0,1,61.793-5.46,1.078,1.078,0,1,0,.469-2.1ZM10.669,136.446l1.063-19.054,1.711,18.866Q12.056,136.333,10.669,136.446Z" transform="translate(-0.001 -76.41)" fill="#38b3d0"/>
    <ellipse id="Ellipse_16" data-name="Ellipse 16" cx="1.242" cy="1.242" rx="1.242" ry="1.242" transform="translate(18.863 46.545)" fill="#38b3d0"/>
    <ellipse id="Ellipse_17" data-name="Ellipse 17" cx="1.242" cy="1.242" rx="1.242" ry="1.242" transform="translate(26.252 11.433)" fill="#38b3d0"/>
    <ellipse id="Ellipse_18" data-name="Ellipse 18" cx="1.242" cy="1.242" rx="1.242" ry="1.242" transform="translate(34.624 0)" fill="#38b3d0"/>
    <ellipse id="Ellipse_19" data-name="Ellipse 19" cx="1.242" cy="1.242" rx="1.242" ry="1.242" transform="translate(47.044 6.53)" fill="#38b3d0"/>
    <ellipse id="Ellipse_20" data-name="Ellipse 20" cx="1.242" cy="1.242" rx="1.242" ry="1.242" transform="translate(53.713 18.103)" fill="#38b3d0"/>
    <ellipse id="Ellipse_21" data-name="Ellipse 21" cx="1.242" cy="1.242" rx="1.242" ry="1.242" transform="translate(60.578 30.46)" fill="#38b3d0"/>
    <ellipse id="Ellipse_22" data-name="Ellipse 22" cx="1.242" cy="1.242" rx="1.242" ry="1.242" transform="translate(35.34 40.987)" fill="#38b3d0"/>
    <ellipse id="Ellipse_23" data-name="Ellipse 23" cx="1.242" cy="1.242" rx="1.242" ry="1.242" transform="translate(28.279 28.825)" fill="#38b3d0"/>
    <ellipse id="Ellipse_24" data-name="Ellipse 24" cx="1.242" cy="1.242" rx="1.242" ry="1.242" transform="translate(80.193 6.334)" fill="#38b3d0"/>
    <ellipse id="Ellipse_25" data-name="Ellipse 25" cx="1.242" cy="1.242" rx="1.242" ry="1.242" transform="translate(84.509 20.456)" fill="#38b3d0"/>
    <ellipse id="Ellipse_26" data-name="Ellipse 26" cx="1.242" cy="1.242" rx="1.242" ry="1.242" transform="translate(78.82 36.345)" fill="#38b3d0"/>
    <ellipse id="Ellipse_27" data-name="Ellipse 27" cx="1.242" cy="1.242" rx="1.242" ry="1.242" transform="translate(3.76 15.356)" fill="#38b3d0"/>
  </g>
</svg>
