<svg id="Group_6" data-name="Group 6" xmlns="http://www.w3.org/2000/svg" width="159" height="42" viewBox="0 0 159 42">
  <text id="_0555_555_55_55" data-name="0555 555 55 55" transform="translate(47 37)" fill="#fff" font-size="16" font-family="HelveticaNeue-Medium, Helvetica Neue" font-weight="500"><tspan x="0" y="0">0555 555 55 55</tspan></text>
  <text id="İletişim" transform="translate(47.5 18)" fill="#fff" font-size="12" font-family="HelveticaNeue-Medium, Helvetica Neue" font-weight="500"><tspan x="0" y="0">İletişim</tspan></text>
  <g id="Group_4" data-name="Group 4">
    <circle id="Ellipse_3" data-name="Ellipse 3" cx="21" cy="21" r="21" fill="#fff"/>
    <g id="phone-call-svgrepo-com" transform="translate(7.636 7.636)">
      <g id="Group_3" data-name="Group 3" transform="translate(0 0)">
        <g id="Group_2" data-name="Group 2">
          <path id="Path_6" data-name="Path 6" d="M16.982,31.623a1.079,1.079,0,0,0,1.082-1.082,7.191,7.191,0,0,1,7.178-7.178,1.082,1.082,0,1,0,0-2.163A9.349,9.349,0,0,0,15.9,30.542,1.079,1.079,0,0,0,16.982,31.623Z" transform="translate(-15.709 -20.656)" fill="#38b3d0"/>
          <path id="Path_7" data-name="Path 7" d="M99.674,99.9a5.181,5.181,0,0,0-5.174,5.174,1.082,1.082,0,0,0,2.163,0,3.007,3.007,0,0,1,3.006-3.006,1.084,1.084,0,0,0,.005-2.168Z" transform="translate(-90.142 -95.184)" fill="#38b3d0"/>
          <path id="Path_8" data-name="Path 8" d="M36.651,12.76a6.139,6.139,0,0,0-3.245-1.728,5.432,5.432,0,0,0-4.9,1.479c-3.812,4.284.27,8.223.3,8.244a16.117,16.117,0,0,1-6.707,6.738c-.027-.027-3.891-4.077-8.228-.323-2.142,1.85-2.084,5.853.223,8.17a5.13,5.13,0,0,0,2.778,1.484,9.483,9.483,0,0,0,4.883-.758A27.589,27.589,0,0,0,37.367,20.411c.933-2.471,1.58-5.344-.716-7.65Zm-1.506,6.85a25.346,25.346,0,0,1-14.2,14.235c-3.515,1.421-4.734.281-5.185-.17-1.389-1.4-1.575-3.658-.228-4.84,2.476-2.163,4.835.148,5.206.726A1.153,1.153,0,0,0,22,30.017c3.4-.869,8.371-5.837,9.331-9.32a1.215,1.215,0,0,0-.445-1.267c-.6-.488-2.858-2.63-.71-5.243a3.413,3.413,0,0,1,4.8.244C36.084,15.533,36.174,17.018,35.145,19.61Z" transform="translate(-12.306 -10.939)" fill="#38b3d0"/>
        </g>
      </g>
    </g>
  </g>
</svg>
