<svg id="honeymoon" xmlns="http://www.w3.org/2000/svg" width="74.429" height="74.429" viewBox="0 0 74.429 74.429">
  <g id="Group_14" data-name="Group 14">
    <g id="Group_13" data-name="Group 13">
      <path id="Path_16" data-name="Path 16" d="M143.642,214.847a8.91,8.91,0,0,0-6.263,2.6,8.853,8.853,0,0,0-14.961,4.582,6.54,6.54,0,0,0-9.253,5.961,6.11,6.11,0,0,0,2.2,4.705l6.375,5.313a3.523,3.523,0,0,0,4.511,0l4.269-3.558,4.016,3.347a4.434,4.434,0,0,0,5.677,0l9.318-7.765A8.214,8.214,0,0,0,152.5,223.7,8.867,8.867,0,0,0,143.642,214.847Zm-13,15.465-1.09.909-.044.037-5.241,4.367a.433.433,0,0,1-.54,0l-6.375-5.313a3.017,3.017,0,0,1-1.088-2.323,3.449,3.449,0,0,1,6.406-1.775,1.551,1.551,0,0,0,2.643.021c.02-.029.038-.06.056-.091a3.449,3.449,0,0,1,6.362,1.845A3.016,3.016,0,0,1,130.647,230.312Zm16.9-2.663-9.318,7.765a1.332,1.332,0,0,1-1.706,0l-3.59-2.991a6.107,6.107,0,0,0,1.9-4.433,6.539,6.539,0,0,0-9.222-5.974,5.757,5.757,0,0,1,10.438-1.275,1.551,1.551,0,0,0,2.657,0A5.756,5.756,0,0,1,149.4,223.7,5.122,5.122,0,0,1,147.551,227.649Z" transform="translate(-95.618 -181.533)" fill="#38b3d0"/>
      <path id="Path_17" data-name="Path 17" d="M66.676,18.607h-6.2V4.652A4.657,4.657,0,0,0,55.822,0H18.607a4.657,4.657,0,0,0-4.652,4.652V18.607h-6.2A7.762,7.762,0,0,0,0,26.36V66.676a7.762,7.762,0,0,0,7.753,7.753H66.676a7.762,7.762,0,0,0,7.753-7.753V26.36A7.762,7.762,0,0,0,66.676,18.607ZM17.057,4.652A1.552,1.552,0,0,1,18.607,3.1H55.822a1.552,1.552,0,0,1,1.551,1.551V18.607H17.057ZM3.1,26.36a4.657,4.657,0,0,1,4.652-4.652h3.1v3.1A4.657,4.657,0,0,1,6.2,29.461H3.1Zm7.753,44.967h-3.1A4.657,4.657,0,0,1,3.1,66.676v-3.1H6.2a4.657,4.657,0,0,1,4.652,4.652Zm60.473-4.652a4.657,4.657,0,0,1-4.652,4.652h-3.1v-3.1a4.657,4.657,0,0,1,4.652-4.652h3.1Zm0-6.2h-3.1a7.762,7.762,0,0,0-7.753,7.753v3.1H13.955v-3.1A7.762,7.762,0,0,0,6.2,60.473H3.1V32.563H6.2a7.762,7.762,0,0,0,7.753-7.753v-3.1H60.473v3.1a7.762,7.762,0,0,0,7.753,7.753h3.1Zm0-31.012h-3.1a4.657,4.657,0,0,1-4.652-4.652v-3.1h3.1a4.657,4.657,0,0,1,4.652,4.652Z" fill="#38b3d0"/>
    </g>
  </g>
</svg>
