<svg id="pets" xmlns="http://www.w3.org/2000/svg" width="64.693" height="66.897" viewBox="0 0 64.693 66.897">
  <path id="Path_42" data-name="Path 42" d="M74.381,120.646c-.692-1.091-5.767-9-10.1-13.177-3.618-3.474-9.034-3.575-9.648-3.575-.056,0-.112,0-.167.007H53.148a15.425,15.425,0,0,0-9.579,3.521c-4.69,4.227-9.88,12.752-10.243,13.353-2.749,4.347-4.434,7.174-4.434,10.317,0,5.664,4.15,9.323,10.572,9.323H68.325c6.42,0,10.569-3.663,10.569-9.333,0-3.171-1.689-5.994-4.446-10.336C74.426,120.712,74.4,120.678,74.381,120.646Zm-6.056,15.383H39.464c-2.31,0-6.186-.641-6.186-4.938,0-1.836,1.206-3.944,3.767-7.992l.025-.041c.051-.085,5.155-8.522,9.434-12.378,2.609-2.349,6.607-2.394,6.646-2.394h1.485c.042,0,.083,0,.125,0,.714.027,4.309.265,6.477,2.346,4.176,4.027,9.451,12.381,9.5,12.465q.036.057.074.11c2.724,4.3,3.694,6.145,3.694,7.877C74.508,135.171,71.145,136.029,68.325,136.029Z" transform="translate(-21.547 -73.518)" fill="#38b3d0"/>
  <path id="Path_43" data-name="Path 43" d="M56.837,25.066c4.95,0,8.827-5.506,8.827-12.534S61.787,0,56.837,0s-8.826,5.5-8.826,12.532S51.888,25.066,56.837,25.066Zm0-20.68c2.1,0,4.441,3.345,4.441,8.146s-2.341,8.149-4.441,8.149S52.4,17.334,52.4,12.532,54.737,4.386,56.837,4.386Z" transform="translate(-35.076 0)" fill="#38b3d0"/>
  <path id="Path_44" data-name="Path 44" d="M13.972,88.2a5.842,5.842,0,0,0,2.46-.532c3.848-1.789,4.92-7.405,2.438-12.786-1.925-4.167-5.487-6.966-8.864-6.966a5.826,5.826,0,0,0-2.456.531C3.7,70.232,2.621,75.849,5.1,81.24,7.029,85.4,10.592,88.2,13.971,88.2ZM9.086,79.4c-1.484-3.223-1.063-6.34.3-6.971a1.448,1.448,0,0,1,.618-.128c1.377,0,3.556,1.549,4.882,4.419,1.484,3.218,1.063,6.335-.3,6.967a1.46,1.46,0,0,1-.621.128C12.593,83.817,10.411,82.268,9.086,79.4Z" transform="translate(-3.769 -48.06)" fill="#38b3d0"/>
  <path id="Path_45" data-name="Path 45" d="M129.216,25.066c4.948,0,8.824-5.506,8.824-12.534S134.164,0,129.216,0s-8.832,5.5-8.832,12.532S124.263,25.066,129.216,25.066Zm0-20.68c2.1,0,4.438,3.345,4.438,8.146s-2.339,8.149-4.438,8.149-4.446-3.347-4.446-8.149S127.113,4.386,129.216,4.386Z" transform="translate(-86.289 0)" fill="#38b3d0"/>
  <path id="Path_46" data-name="Path 46" d="M181.463,68.444A5.808,5.808,0,0,0,179,67.91c-3.372,0-6.932,2.8-8.859,6.966-2.493,5.379-1.422,11,2.447,12.793a5.833,5.833,0,0,0,2.45.527c3.38,0,6.942-2.8,8.866-6.965C186.392,75.846,185.317,70.228,181.463,68.444Zm-1.537,10.95c-1.324,2.869-3.5,4.417-4.884,4.417a1.45,1.45,0,0,1-.612-.124c-1.373-.638-1.8-3.753-.3-6.969C175.453,73.846,177.63,72.3,179,72.3a1.435,1.435,0,0,1,.616.128C180.989,73.058,181.411,76.174,179.926,79.395Z" transform="translate(-120.551 -48.055)" fill="#38b3d0"/>
</svg>
