<svg xmlns="http://www.w3.org/2000/svg" width="23.195" height="23.195" viewBox="0 0 23.195 23.195">
  <path id="twitter" d="M11.6,0a11.6,11.6,0,1,0,11.6,11.6A11.6,11.6,0,0,0,11.6,0Zm5.3,9.042q.008.171.008.344A7.522,7.522,0,0,1,9.326,16.96h0a7.535,7.535,0,0,1-4.08-1.2,5.414,5.414,0,0,0,.635.037,5.341,5.341,0,0,0,3.306-1.139A2.665,2.665,0,0,1,6.7,12.813a2.653,2.653,0,0,0,1.2-.046,2.663,2.663,0,0,1-2.136-2.609c0-.012,0-.023,0-.034a2.644,2.644,0,0,0,1.206.333A2.664,2.664,0,0,1,6.149,6.9a7.558,7.558,0,0,0,5.487,2.781,2.663,2.663,0,0,1,4.536-2.428,5.339,5.339,0,0,0,1.69-.646,2.672,2.672,0,0,1-1.171,1.472,5.309,5.309,0,0,0,1.529-.419A5.41,5.41,0,0,1,16.893,9.042Zm0,0" fill="#fff"/>
</svg>
