<svg id="villa" xmlns="http://www.w3.org/2000/svg" width="103.6" height="74.429" viewBox="0 0 103.6 74.429">
  <path id="Path_32" data-name="Path 32" d="M102.315,86.06H71.809V84.99h2.459a1.284,1.284,0,0,0,.692-2.366L52.632,68.343a1.284,1.284,0,0,0-1.384,0L28.92,82.624a1.284,1.284,0,0,0,.692,2.366h2.461v1.07H1.284A1.284,1.284,0,0,0,0,87.344v53.94a1.284,1.284,0,0,0,1.284,1.284H102.315a1.284,1.284,0,0,0,1.284-1.284V87.344A1.284,1.284,0,0,0,102.315,86.06ZM73.633,140H29.967V137.86H73.633Zm-6.957-11.773H64.108V91.411h2.569Zm-10.06,7.064v-5.779a1.284,1.284,0,0,0-.963-1.242v-5.393h5.886v5.393a1.284,1.284,0,0,0-.963,1.242v5.779ZM42.061,96.763h5.886v5.351H42.061Zm0,7.92h5.886v3.425H42.061Zm0,5.993h5.886v.856H42.061Zm0,3.425h5.886v6.207H42.061Zm0,14.169v-5.393h5.886v5.393a1.284,1.284,0,0,0-.963,1.242v5.779h-3.96v-5.779A1.284,1.284,0,0,0,42.061,128.27Zm7.492,2.526h4.5v4.5h-4.5Zm6.1-34.034h5.886v5.351H55.653Zm0,7.92h5.886v3.425H55.653Zm0,5.993h5.886v.856H55.653Zm0,3.425h5.886v6.207H55.653Zm5.886-19.907H55.653V91.411h5.886Zm-8.455,34.034H50.516V91.411h2.569ZM47.947,94.194H42.061V91.411h5.886Zm-8.455,34.034H36.923V91.411h2.569Zm-5.137.042a1.284,1.284,0,0,0-.963,1.242V130.8H2.569V94.622H34.355ZM35.96,130.8h4.5v4.5h-4.5Zm27.184,4.5v-4.5h4.5v4.5Zm6.1-7.021V94.622h31.786V130.8H70.208v-1.284A1.284,1.284,0,0,0,69.245,128.27Zm31.786-39.641v3.425H69.245v-.642h1.28a1.284,1.284,0,0,0,1.284-1.284v-1.5ZM51.94,70.949,69.876,82.422H34Zm17.3,14.041v3.853h-34.6V84.99ZM32.073,88.629v1.5a1.284,1.284,0,0,0,1.284,1.284h1v.642H2.569V88.629Zm-29.5,44.736H33.392v1.926H28.683a1.284,1.284,0,0,0-1.284,1.284V140H2.569ZM76.2,140v-3.425a1.284,1.284,0,0,0-1.284-1.284H70.208v-1.926h30.823V140Z" transform="translate(0 -68.14)" fill="#38b3d0"/>
  <path id="Path_33" data-name="Path 33" d="M39.439,211.7H46.5a1.284,1.284,0,0,0,1.284-1.284V200.143a1.284,1.284,0,0,0-1.284-1.284H39.439a1.284,1.284,0,0,0-1.284,1.284v10.274A1.284,1.284,0,0,0,39.439,211.7Zm1.284-2.569v-4.281h4.5v4.281Zm4.5-7.706v.856h-4.5v-.856Z" transform="translate(-29.988 -170.879)" fill="#38b3d0"/>
  <path id="Path_34" data-name="Path 34" d="M99.439,211.7H106.5a1.284,1.284,0,0,0,1.284-1.284V200.143a1.284,1.284,0,0,0-1.284-1.284H99.439a1.284,1.284,0,0,0-1.284,1.284v10.274A1.284,1.284,0,0,0,99.439,211.7Zm1.284-2.569v-4.281h4.5v4.281Zm4.5-7.706v.856h-4.5v-.856Z" transform="translate(-77.145 -170.879)" fill="#38b3d0"/>
  <path id="Path_35" data-name="Path 35" d="M39.439,302.7H46.5a1.284,1.284,0,0,0,1.284-1.284V291.143a1.284,1.284,0,0,0-1.284-1.284H39.439a1.284,1.284,0,0,0-1.284,1.284v10.274A1.284,1.284,0,0,0,39.439,302.7Zm1.284-2.569v-4.281h4.5v4.281Zm4.5-7.706v.856h-4.5v-.856Z" transform="translate(-29.988 -242.4)" fill="#38b3d0"/>
  <path id="Path_36" data-name="Path 36" d="M99.439,302.7H106.5a1.284,1.284,0,0,0,1.284-1.284V291.143a1.284,1.284,0,0,0-1.284-1.284H99.439a1.284,1.284,0,0,0-1.284,1.284v10.274A1.284,1.284,0,0,0,99.439,302.7Zm1.284-2.569v-4.281h4.5v4.281Zm4.5-7.706v.856h-4.5v-.856Z" transform="translate(-77.145 -242.4)" fill="#38b3d0"/>
  <path id="Path_37" data-name="Path 37" d="M343.439,211.7H350.5a1.284,1.284,0,0,0,1.284-1.284V200.143a1.284,1.284,0,0,0-1.284-1.284h-7.064a1.284,1.284,0,0,0-1.284,1.284v10.274A1.284,1.284,0,0,0,343.439,211.7Zm1.284-2.569v-4.281h4.5v4.281Zm4.5-7.706v.856h-4.5v-.856Z" transform="translate(-268.917 -170.879)" fill="#38b3d0"/>
  <path id="Path_38" data-name="Path 38" d="M403.439,211.7H410.5a1.284,1.284,0,0,0,1.284-1.284V200.143a1.284,1.284,0,0,0-1.284-1.284h-7.064a1.284,1.284,0,0,0-1.284,1.284v10.274A1.284,1.284,0,0,0,403.439,211.7Zm1.284-2.569v-4.281h4.5v4.281Zm4.5-7.706v.856h-4.5v-.856Z" transform="translate(-316.074 -170.879)" fill="#38b3d0"/>
  <path id="Path_39" data-name="Path 39" d="M343.439,302.7H350.5a1.284,1.284,0,0,0,1.284-1.284V291.143a1.284,1.284,0,0,0-1.284-1.284h-7.064a1.284,1.284,0,0,0-1.284,1.284v10.274A1.284,1.284,0,0,0,343.439,302.7Zm1.284-2.569v-4.281h4.5v4.281Zm4.5-7.706v.856h-4.5v-.856Z" transform="translate(-268.917 -242.4)" fill="#38b3d0"/>
  <path id="Path_40" data-name="Path 40" d="M403.439,302.7H410.5a1.284,1.284,0,0,0,1.284-1.284V291.143a1.284,1.284,0,0,0-1.284-1.284h-7.064a1.284,1.284,0,0,0-1.284,1.284v10.274A1.284,1.284,0,0,0,403.439,302.7Zm1.284-2.569v-4.281h4.5v4.281Zm4.5-7.706v.856h-4.5v-.856Z" transform="translate(-316.074 -242.4)" fill="#38b3d0"/>
</svg>
